<mxfile host="Electron" modified="2024-06-06T08:05:16.643Z" agent="Mozilla/5.0 (Windows NT 10.0; Win64; x64) AppleWebKit/537.36 (KHTML, like Gecko) draw.io/22.1.18 Chrome/120.0.6099.199 Electron/28.1.2 Safari/537.36" etag="J1EyXXSjV7O1Z9MiI7d3" version="22.1.18" type="device">
  <diagram name="第 1 页" id="5bEQolEPRkO2XC8nHkkT">
    <mxGraphModel dx="691" dy="399" grid="1" gridSize="10" guides="1" tooltips="1" connect="1" arrows="1" fold="1" page="1" pageScale="1" pageWidth="827" pageHeight="1169" math="0" shadow="0">
      <root>
        <mxCell id="0" />
        <mxCell id="1" parent="0" />
        <mxCell id="o7TBoptePuTYKCGVOIUE-4" style="edgeStyle=orthogonalEdgeStyle;rounded=0;orthogonalLoop=1;jettySize=auto;html=1;exitX=1;exitY=0.5;exitDx=0;exitDy=0;entryX=0;entryY=0.5;entryDx=0;entryDy=0;" edge="1" parent="1" source="o7TBoptePuTYKCGVOIUE-2" target="o7TBoptePuTYKCGVOIUE-3">
          <mxGeometry relative="1" as="geometry" />
        </mxCell>
        <mxCell id="o7TBoptePuTYKCGVOIUE-2" value="&lt;font style=&quot;font-size: 18px;&quot;&gt;电荷藕合器件图像传感器&lt;/font&gt;" style="rounded=0;whiteSpace=wrap;html=1;" vertex="1" parent="1">
          <mxGeometry x="200" y="40" width="120" height="80" as="geometry" />
        </mxCell>
        <mxCell id="o7TBoptePuTYKCGVOIUE-6" style="edgeStyle=orthogonalEdgeStyle;rounded=0;orthogonalLoop=1;jettySize=auto;html=1;exitX=1;exitY=0.5;exitDx=0;exitDy=0;entryX=0;entryY=0.5;entryDx=0;entryDy=0;" edge="1" parent="1" source="o7TBoptePuTYKCGVOIUE-3" target="o7TBoptePuTYKCGVOIUE-5">
          <mxGeometry relative="1" as="geometry" />
        </mxCell>
        <mxCell id="o7TBoptePuTYKCGVOIUE-9" style="edgeStyle=orthogonalEdgeStyle;rounded=0;orthogonalLoop=1;jettySize=auto;html=1;exitX=0.5;exitY=1;exitDx=0;exitDy=0;entryX=0.5;entryY=0;entryDx=0;entryDy=0;" edge="1" parent="1" source="o7TBoptePuTYKCGVOIUE-3" target="o7TBoptePuTYKCGVOIUE-7">
          <mxGeometry relative="1" as="geometry" />
        </mxCell>
        <mxCell id="o7TBoptePuTYKCGVOIUE-10" style="edgeStyle=orthogonalEdgeStyle;rounded=0;orthogonalLoop=1;jettySize=auto;html=1;exitX=1;exitY=0.75;exitDx=0;exitDy=0;entryX=1;entryY=0.25;entryDx=0;entryDy=0;" edge="1" parent="1" source="o7TBoptePuTYKCGVOIUE-3" target="o7TBoptePuTYKCGVOIUE-8">
          <mxGeometry relative="1" as="geometry">
            <mxPoint x="560" y="360" as="targetPoint" />
            <Array as="points">
              <mxPoint x="560" y="100" />
              <mxPoint x="560" y="340" />
            </Array>
          </mxGeometry>
        </mxCell>
        <mxCell id="o7TBoptePuTYKCGVOIUE-3" value="&lt;font style=&quot;font-size: 18px;&quot;&gt;运算放大器 1&lt;/font&gt;" style="rounded=0;whiteSpace=wrap;html=1;" vertex="1" parent="1">
          <mxGeometry x="400" y="40" width="120" height="80" as="geometry" />
        </mxCell>
        <mxCell id="o7TBoptePuTYKCGVOIUE-11" style="edgeStyle=orthogonalEdgeStyle;rounded=0;orthogonalLoop=1;jettySize=auto;html=1;exitX=0.5;exitY=1;exitDx=0;exitDy=0;entryX=1;entryY=0.5;entryDx=0;entryDy=0;jumpStyle=line;" edge="1" parent="1" source="o7TBoptePuTYKCGVOIUE-5" target="o7TBoptePuTYKCGVOIUE-7">
          <mxGeometry relative="1" as="geometry" />
        </mxCell>
        <mxCell id="o7TBoptePuTYKCGVOIUE-12" style="edgeStyle=orthogonalEdgeStyle;rounded=0;orthogonalLoop=1;jettySize=auto;html=1;exitX=1;exitY=0.5;exitDx=0;exitDy=0;entryX=1;entryY=0.75;entryDx=0;entryDy=0;" edge="1" parent="1" source="o7TBoptePuTYKCGVOIUE-5" target="o7TBoptePuTYKCGVOIUE-8">
          <mxGeometry relative="1" as="geometry" />
        </mxCell>
        <mxCell id="o7TBoptePuTYKCGVOIUE-5" value="&lt;font style=&quot;font-size: 18px;&quot;&gt;运算放大器 2&lt;/font&gt;" style="rounded=0;whiteSpace=wrap;html=1;" vertex="1" parent="1">
          <mxGeometry x="600" y="40" width="120" height="80" as="geometry" />
        </mxCell>
        <mxCell id="o7TBoptePuTYKCGVOIUE-7" value="&lt;font style=&quot;font-size: 18px;&quot;&gt;模数转换器 1&lt;/font&gt;" style="rounded=0;whiteSpace=wrap;html=1;" vertex="1" parent="1">
          <mxGeometry x="400" y="200" width="120" height="80" as="geometry" />
        </mxCell>
        <mxCell id="o7TBoptePuTYKCGVOIUE-8" value="&lt;font style=&quot;font-size: 18px;&quot;&gt;模数转换器 2&lt;/font&gt;" style="rounded=0;whiteSpace=wrap;html=1;" vertex="1" parent="1">
          <mxGeometry x="400" y="320" width="120" height="80" as="geometry" />
        </mxCell>
        <mxCell id="o7TBoptePuTYKCGVOIUE-15" style="edgeStyle=orthogonalEdgeStyle;rounded=0;orthogonalLoop=1;jettySize=auto;html=1;exitX=1;exitY=0.5;exitDx=0;exitDy=0;entryX=0;entryY=0.5;entryDx=0;entryDy=0;startArrow=classic;startFill=1;" edge="1" parent="1" source="o7TBoptePuTYKCGVOIUE-14" target="o7TBoptePuTYKCGVOIUE-7">
          <mxGeometry relative="1" as="geometry" />
        </mxCell>
        <mxCell id="o7TBoptePuTYKCGVOIUE-17" value="I2C" style="edgeLabel;html=1;align=center;verticalAlign=middle;resizable=0;points=[];" vertex="1" connectable="0" parent="o7TBoptePuTYKCGVOIUE-15">
          <mxGeometry x="-0.0849" relative="1" as="geometry">
            <mxPoint x="3" y="-10" as="offset" />
          </mxGeometry>
        </mxCell>
        <mxCell id="o7TBoptePuTYKCGVOIUE-14" value="&lt;span style=&quot;font-size: 18px;&quot;&gt;主控芯片&lt;/span&gt;" style="rounded=0;whiteSpace=wrap;html=1;" vertex="1" parent="1">
          <mxGeometry x="200" y="200" width="120" height="80" as="geometry" />
        </mxCell>
        <mxCell id="o7TBoptePuTYKCGVOIUE-16" value="" style="endArrow=classic;html=1;rounded=0;entryX=0;entryY=0.5;entryDx=0;entryDy=0;" edge="1" parent="1" target="o7TBoptePuTYKCGVOIUE-8">
          <mxGeometry width="50" height="50" relative="1" as="geometry">
            <mxPoint x="360" y="240" as="sourcePoint" />
            <mxPoint x="420" y="200" as="targetPoint" />
            <Array as="points">
              <mxPoint x="360" y="360" />
            </Array>
          </mxGeometry>
        </mxCell>
      </root>
    </mxGraphModel>
  </diagram>
</mxfile>
